<?xml version="1.0" standalone="no"?>
<!DOCTYPE svg PUBLIC "-//W3C//DTD SVG 1.1//EN" "http://www.w3.org/Graphics/SVG/1.1/DTD/svg11.dtd" >
<svg xmlns="http://www.w3.org/2000/svg" xmlns:xlink="http://www.w3.org/1999/xlink" version="1.1">
<metadata>
Created by FontForge 20191125 at Sat Sep 11 08:44:20 2021
 By convertio
Copyright csturoe 2019
</metadata>
<defs>
<font id="Lauvinko-Bubble" horiz-adv-x="1792" >
  <font-face 
    font-family="Lauvinko Bubble"
    font-weight="400"
    font-stretch="normal"
    units-per-em="2048"
    panose-1="0 0 4 0 0 0 0 0 0 0"
    ascent="2048"
    descent="0"
    x-height="512"
    cap-height="2048"
    bbox="-2304 -768 2304 2816"
    underline-thickness="102"
    underline-position="153"
    unicode-range="U+0020-201D"
  />
<missing-glyph horiz-adv-x="1831" 
d="M1506 50l-719 954l-718 -954h1437zM50 69l718 955l-718 954v-1909v0zM1525 69v1909l-719 -954l719 -955v0zM787 1043l719 955h-1437l718 -955v0zM0 0v2048h1575v-2048h-1575z" />
    <glyph glyph-name=".notdef" horiz-adv-x="1831" 
d="M1506 50l-719 954l-718 -954h1437zM50 69l718 955l-718 954v-1909v0zM1525 69v1909l-719 -954l719 -955v0zM787 1043l719 955h-1437l718 -955v0zM0 0v2048h1575v-2048h-1575z" />
    <glyph glyph-name="space" unicode=" " horiz-adv-x="768" 
 />
    <glyph glyph-name="quotedbl" unicode="&#x22;" horiz-adv-x="1280" 
d="M1024 0l-1024 1024l1024 1024v-512l-512 -512l512 -512v-512v0z" />
    <glyph glyph-name="quotesingle" unicode="'" horiz-adv-x="1280" 
d="M0 0v512l512 512l-512 512v512l1024 -1024l-1024 -1024v0z" />
    <glyph glyph-name="comma" unicode="," horiz-adv-x="1536" 
d="M0 256v256q0 106 75 180q75 76 181 76h256v-256q0 -107 -76 -181q-75 -75 -180 -75h-256zM768 768v256q0 106 75 180q75 76 181 76h256v-256q0 -107 -76 -181q-75 -75 -180 -75h-256zM0 1024v256q0 106 75 180q75 76 181 76h256v-256q0 -107 -76 -181q-75 -75 -180 -75
h-256z" />
    <glyph glyph-name="period" unicode="." 
d="M512 768q-107 0 -181 75q-75 75 -75 181t75 180q75 76 181 76h512q106 0 180 -76q76 -75 76 -180q0 -107 -76 -181q-75 -75 -180 -75h-512z" />
    <glyph glyph-name="zero" unicode="0" horiz-adv-x="1536" 
d="M640 768q52 0 90 37q38 38 38 91v256q0 52 -38 90t-90 38q-53 0 -91 -38q-37 -38 -37 -90v-256q0 -53 37 -91q38 -37 91 -37v0zM256 256q-107 0 -181 75q-75 75 -75 181v1024q0 106 75 180q75 76 181 76h768q106 0 180 -76q76 -75 76 -180v-1024q0 -107 -76 -181
q-75 -75 -180 -75h-768z" />
    <glyph glyph-name="one" unicode="1" horiz-adv-x="768" 
d="M256 0q-107 0 -181 75q-75 75 -75 181v1536q0 106 75 180q75 76 181 76t180 -76q76 -75 76 -180v-1536q0 -107 -76 -181q-75 -75 -180 -75v0z" />
    <glyph glyph-name="two" unicode="2" horiz-adv-x="1536" 
d="M256 0q-107 0 -181 75q-75 75 -75 181v768q0 106 75 180q75 76 181 76h384q52 0 90 37q38 38 38 91q0 52 -38 90t-90 38h-384q-107 0 -181 75q-75 75 -75 181t75 180q75 76 181 76h768q106 0 180 -76q76 -75 76 -180v-768q0 -107 -76 -181q-75 -75 -180 -75h-384
q-53 0 -91 -38q-37 -38 -37 -90q0 -53 37 -91q38 -37 91 -37h128v-256q0 -107 -76 -181q-75 -75 -180 -75h-256z" />
    <glyph glyph-name="three" unicode="3" horiz-adv-x="1536" 
d="M256 -768q-107 0 -181 76q-75 75 -75 180v768q0 106 75 180q75 76 181 76h384q52 0 90 37q38 38 38 91v768q0 52 -38 90t-90 38h-384q-107 0 -181 75q-75 75 -75 181t75 180q75 76 181 76h768q106 0 180 -76q76 -75 76 -180v-1536q0 -107 -76 -181q-75 -75 -180 -75h-384
q-53 0 -91 -37q-37 -38 -37 -91q0 -52 37 -90q38 -38 91 -38h128v-256q0 -106 -76 -180q-75 -76 -180 -76h-256z" />
    <glyph glyph-name="four" unicode="4" horiz-adv-x="1536" 
d="M640 512q52 0 90 37q38 38 38 91v256q0 52 -38 90t-90 38q-53 0 -91 -38q-37 -38 -37 -90v-256q0 -53 37 -91q38 -37 91 -37v0zM256 0q-107 0 -181 75q-75 75 -75 181v1024q0 106 75 180q75 76 181 76h384q52 0 90 37q38 38 38 91v128q0 106 75 180q75 76 181 76t180 -76
q76 -75 76 -180v-1536q0 -107 -76 -181q-75 -75 -180 -75h-768z" />
    <glyph glyph-name="five" unicode="5" horiz-adv-x="1536" 
d="M1024 0q-107 0 -181 75q-75 75 -75 181v384q0 52 -38 90t-90 38h-384q-107 0 -181 75q-75 75 -75 181v768q0 106 75 180q75 76 181 76t180 -76q76 -75 76 -180v-384q0 -53 37 -91q38 -37 91 -37q52 0 90 37q38 38 38 91v384q0 106 75 180q75 76 181 76t180 -76
q76 -75 76 -180v-1536q0 -107 -76 -181q-75 -75 -180 -75v0z" />
    <glyph glyph-name="six" unicode="6" horiz-adv-x="1536" 
d="M256 0q-107 0 -181 75q-75 75 -75 181v1536q0 106 75 180q75 76 181 76h768q106 0 180 -76q76 -75 76 -180q0 -107 -76 -181q-75 -75 -180 -75h-384q-53 0 -91 -38q-37 -38 -37 -90q0 -53 37 -91q38 -37 91 -37h128q106 0 180 -76q76 -75 76 -180q0 -107 -76 -181
q-75 -75 -180 -75h-128q-53 0 -91 -38q-37 -38 -37 -90q0 -53 37 -91q38 -37 91 -37h384q106 0 180 -76q76 -75 76 -180q0 -107 -76 -181q-75 -75 -180 -75h-768z" />
    <glyph glyph-name="seven" unicode="7" horiz-adv-x="1536" 
d="M1024 0q-107 0 -181 75q-75 75 -75 181v1152q0 52 -38 90t-90 38h-384q-107 0 -181 75q-75 75 -75 181t75 180q75 76 181 76h768q106 0 180 -76q76 -75 76 -180v-1536q0 -107 -76 -181q-75 -75 -180 -75v0z" />
    <glyph glyph-name="eight" unicode="8" horiz-adv-x="1536" 
d="M1024 0q-107 0 -181 75q-75 75 -75 181v384q0 52 -38 90t-90 38h-384q-107 0 -181 75q-75 75 -75 181v768q0 106 75 180q75 76 181 76t180 -76q76 -75 76 -180v-384q0 -53 37 -91q38 -37 91 -37h384q106 0 180 -76q76 -75 76 -180v-768q0 -107 -76 -181q-75 -75 -180 -75
v0z" />
    <glyph glyph-name="nine" unicode="9" horiz-adv-x="1536" 
d="M640 1024q52 0 90 37q38 38 38 91v256q0 52 -38 90t-90 38q-53 0 -91 -38q-37 -38 -37 -90v-256q0 -53 37 -91q38 -37 91 -37v0zM256 0q-107 0 -181 75q-75 75 -75 181v1536q0 106 75 180q75 76 181 76h768q106 0 180 -76q76 -75 76 -180v-1024q0 -107 -76 -181
q-75 -75 -180 -75h-384q-53 0 -91 -38q-37 -38 -37 -90v-128q0 -107 -76 -181q-75 -75 -180 -75v0z" />
    <glyph glyph-name="A" unicode="A" horiz-adv-x="2048" 
d="M1280 -512q-107 0 -181 76q-75 75 -75 180v896q0 52 -38 90t-90 38h-256q-53 0 -91 -38q-37 -38 -37 -90v-384q0 -107 -76 -181q-75 -75 -180 -75q-107 0 -181 75q-75 75 -75 181v1536q0 106 75 180q75 76 181 76t180 -76q76 -75 76 -180v-384q0 -53 37 -91
q38 -37 91 -37h256q52 0 90 37q38 38 38 91v384q0 106 75 180q75 76 181 76t180 -76q76 -75 76 -180v-1664q0 -53 37 -91q38 -37 91 -37h128v-256q0 -106 -76 -180q-75 -76 -180 -76h-256z" />
    <glyph glyph-name="B" unicode="B" horiz-adv-x="256" 
 />
    <glyph glyph-name="E" unicode="E" horiz-adv-x="2304" 
d="M256 0q-107 0 -181 75q-75 75 -75 181v1536q0 106 75 180q75 76 181 76h1536q106 0 180 -76q76 -75 76 -180v-1536q0 -107 -76 -181q-75 -75 -180 -75h-768q-107 0 -181 75q-75 75 -75 181v512q0 106 75 180q75 76 181 76t180 -76q76 -75 76 -180v-256h256v896
q0 52 -38 90t-90 38h-768q-53 0 -91 -38q-37 -38 -37 -90v-1152q0 -107 -76 -181q-75 -75 -180 -75v0z" />
    <glyph glyph-name="G" unicode="G" horiz-adv-x="2048" 
d="M1280 -512q-107 0 -181 76q-75 75 -75 180v1664q0 52 -38 90t-90 38h-256q-53 0 -91 -38q-37 -38 -37 -90v-768q0 -53 37 -91q38 -37 91 -37h128v-256q0 -107 -76 -181q-75 -75 -180 -75h-256q-107 0 -181 75q-75 75 -75 181v1536q0 106 75 180q75 76 181 76h1024
q106 0 180 -76q76 -75 76 -180v-1664q0 -53 37 -91q38 -37 91 -37h128v-256q0 -106 -76 -180q-75 -76 -180 -76h-256z" />
    <glyph glyph-name="H" unicode="H" horiz-adv-x="768" 
d="M0 256v256q0 106 75 180q75 76 181 76h256v-256q0 -107 -76 -181q-75 -75 -180 -75h-256zM0 1024v256q0 106 75 180q75 76 181 76h256v-256q0 -107 -76 -181q-75 -75 -180 -75h-256z" />
    <glyph glyph-name="I" unicode="I" horiz-adv-x="2560" 
d="M0 0v256q0 106 75 180q75 76 181 76h256v-256q0 -107 -76 -181q-75 -75 -180 -75h-256zM768 0v256q0 106 75 180q75 76 181 76h256v-256q0 -107 -76 -181q-75 -75 -180 -75h-256zM1792 -512q-107 0 -181 76q-75 75 -75 180v1664q0 52 -38 90t-90 38h-768q-53 0 -91 -38
q-37 -38 -37 -90q0 -53 37 -91q38 -37 91 -37h128v-256q0 -107 -76 -181q-75 -75 -180 -75h-256q-107 0 -181 75q-75 75 -75 181v768q0 106 75 180q75 76 181 76h1536q106 0 180 -76q76 -75 76 -180v-1664q0 -53 37 -91q38 -37 91 -37h128v-256q0 -106 -76 -180
q-75 -76 -180 -76h-256z" />
    <glyph glyph-name="K" unicode="K" horiz-adv-x="768" 
d="M0 256v1024q0 106 75 180q75 76 181 76h256v-1024q0 -107 -76 -181q-75 -75 -180 -75h-256z" />
    <glyph glyph-name="M" unicode="M" horiz-adv-x="768" 
d="M0 768v256q0 106 75 180q75 76 181 76h256v-256q0 -107 -76 -181q-75 -75 -180 -75h-256z" />
    <glyph glyph-name="N" unicode="N" 
d="M256 0q-107 0 -181 75q-75 75 -75 181t75 180q75 76 181 76h640q52 0 90 37q38 38 38 91v768q0 52 -38 90t-90 38h-640q-107 0 -181 75q-75 75 -75 181t75 180q75 76 181 76h1024q106 0 180 -76q76 -75 76 -180v-1536q0 -107 -76 -181q-75 -75 -180 -75h-1024z" />
    <glyph glyph-name="O" unicode="O" 
d="M256 0q-107 0 -181 75q-75 75 -75 181v768q0 106 75 180q75 76 181 76h640q52 0 90 37q38 38 38 91q0 52 -38 90t-90 38h-640q-107 0 -181 75q-75 75 -75 181t75 180q75 76 181 76h1024q106 0 180 -76q76 -75 76 -180v-768q0 -107 -76 -181q-75 -75 -180 -75h-640
q-53 0 -91 -38q-37 -38 -37 -90q0 -53 37 -91q38 -37 91 -37h640q106 0 180 -76q76 -75 76 -180q0 -107 -76 -181q-75 -75 -180 -75h-1024z" />
    <glyph glyph-name="Q" unicode="Q" 
d="M256 0q-107 0 -181 75q-75 75 -75 181t75 180q75 76 181 76h640q52 0 90 37q38 38 38 91q0 52 -38 90t-90 38h-640q-107 0 -181 75q-75 75 -75 181v768q0 106 75 180q75 76 181 76t180 -76q76 -75 76 -180v-384q0 -53 37 -91q38 -37 91 -37h256q52 0 90 37q38 38 38 91
v384q0 106 75 180q75 76 181 76t180 -76q76 -75 76 -180v-1536q0 -107 -76 -181q-75 -75 -180 -75h-1024z" />
    <glyph glyph-name="S" unicode="S" horiz-adv-x="1536" 
d="M0 256v1024q0 106 75 180q75 76 181 76h256v-384q0 -53 37 -91q38 -37 91 -37q52 0 90 37q38 38 38 91v128q0 106 75 180q75 76 181 76h256v-512q0 -107 -76 -181q-75 -75 -180 -75h-512v-256q0 -107 -76 -181q-75 -75 -180 -75h-256z" />
    <glyph glyph-name="U" unicode="U" 
d="M256 0q-107 0 -181 75q-75 75 -75 181v768q0 106 75 180q75 76 181 76h128q52 0 90 37q38 38 38 91v384q0 106 75 180q75 76 181 76t180 -76q76 -75 76 -180v-768q0 -107 -76 -181q-75 -75 -180 -75h-128q-53 0 -91 -38q-37 -38 -37 -90q0 -53 37 -91q38 -37 91 -37h640
q106 0 180 -76q76 -75 76 -180q0 -107 -76 -181q-75 -75 -180 -75h-1024z" />
    <glyph glyph-name="V" unicode="V" horiz-adv-x="256" 
 />
    <glyph glyph-name="W" unicode="W" 
d="M256 0q-107 0 -181 75q-75 75 -75 181v1536q0 106 75 180q75 76 181 76t180 -76q76 -75 76 -180v-384q0 -53 37 -91q38 -37 91 -37h256q52 0 90 37q38 38 38 91v384q0 106 75 180q75 76 181 76t180 -76q76 -75 76 -180v-768q0 -107 -76 -181q-75 -75 -180 -75h-640
q-53 0 -91 -38q-37 -38 -37 -90q0 -53 37 -91q38 -37 91 -37h640q106 0 180 -76q76 -75 76 -180q0 -107 -76 -181q-75 -75 -180 -75h-1024z" />
    <glyph glyph-name="X" unicode="X" horiz-adv-x="0" 
d="M-2048 2304q-106 0 -180 75q-76 75 -76 181t76 180q75 76 180 76h1536q107 0 181 -76q75 -75 75 -180q0 -107 -75 -181q-75 -75 -181 -75h-1536z" />
    <glyph glyph-name="Y" unicode="Y" 
d="M256 0q-107 0 -181 75q-75 75 -75 181v1536q0 106 75 180q75 76 181 76h1024q106 0 180 -76q76 -75 76 -180q0 -107 -76 -181q-75 -75 -180 -75h-640q-53 0 -91 -38q-37 -38 -37 -90v-768q0 -53 37 -91q38 -37 91 -37h256q52 0 90 37q38 38 38 91v384q0 106 75 180
q75 76 181 76t180 -76q76 -75 76 -180v-768q0 -107 -76 -181q-75 -75 -180 -75h-1024z" />
    <glyph glyph-name="Z" unicode="Z" horiz-adv-x="0" 
d="M-2048 -768q-106 0 -180 76q-76 75 -76 180q0 107 76 181q75 75 180 75h1152q53 0 91 38q37 38 37 90v384q0 106 76 180q75 76 180 76q107 0 181 -76q75 -75 75 -180v-768q0 -106 -75 -180q-75 -76 -181 -76h-1536z" />
    <glyph glyph-name="a" unicode="a" horiz-adv-x="768" 
d="M256 -512q-107 0 -181 76q-75 75 -75 180v1024h-512q-106 0 -180 75q-76 75 -76 181t76 180q75 76 180 76h768q106 0 180 -76q76 -75 76 -180v-896q0 -53 37 -91q38 -37 91 -37h128v-256q0 -106 -76 -180q-75 -76 -180 -76h-256z" />
    <glyph glyph-name="b" unicode="b" 
d="M256 0q-107 0 -181 75q-75 75 -75 181v1536q0 106 75 180q75 76 181 76h1024q106 0 180 -76q76 -75 76 -180q0 -107 -76 -181q-75 -75 -180 -75h-640q-53 0 -91 -38q-37 -38 -37 -90q0 -53 37 -91q38 -37 91 -37h640q106 0 180 -76q76 -75 76 -180v-768q0 -107 -76 -181
q-75 -75 -180 -75q-107 0 -181 75q-75 75 -75 181v384q0 52 -38 90t-90 38h-256q-53 0 -91 -38q-37 -38 -37 -90q0 -53 37 -91q38 -37 91 -37h128v-256q0 -107 -76 -181q-75 -75 -180 -75h-256z" />
    <glyph glyph-name="c" unicode="c" 
d="M256 0q-106 0 -181 75q-75 74 -75 181q0 105 75 180q74 76 181 76h640q52 0 90 37q38 38 38 91v1152q0 105 75 180q74 76 181 76q105 0 180 -76q76 -74 76 -180v-1536q0 -106 -76 -181q-74 -75 -180 -75h-1024z" />
    <glyph glyph-name="d" unicode="d" 
d="M896 512q52 0 90 37q38 38 38 91q0 52 -38 90t-90 38h-256q-53 0 -91 -38q-37 -38 -37 -90q0 -53 37 -91q38 -37 91 -37h256zM256 0q-107 0 -181 75q-75 75 -75 181v1536q0 106 75 180q75 76 181 76t180 -76q76 -75 76 -180v-512h768q106 0 180 -76q76 -75 76 -180v-768
q0 -107 -76 -181q-75 -75 -180 -75h-1024z" />
    <glyph glyph-name="e" unicode="e" horiz-adv-x="1024" 
d="M256 0q-107 0 -181 75q-75 75 -75 181v768q0 106 75 180q75 76 181 76h768q106 0 180 -76q76 -75 76 -180q0 -107 -76 -181q-75 -75 -180 -75h-384q-53 0 -91 -38q-37 -38 -37 -90q0 -53 37 -91q38 -37 91 -37h128v-256q0 -107 -76 -181q-75 -75 -180 -75h-256z" />
    <glyph glyph-name="f" unicode="f" horiz-adv-x="256" 
 />
    <glyph glyph-name="g" unicode="g" 
d="M256 0q-107 0 -181 75q-75 75 -75 181v1536q0 106 75 180q75 76 181 76h1024q106 0 180 -76q76 -75 76 -180q0 -107 -76 -181q-75 -75 -180 -75h-640q-53 0 -91 -38q-37 -38 -37 -90v-768q0 -53 37 -91q38 -37 91 -37h640q106 0 180 -76q76 -75 76 -180q0 -107 -76 -181
q-75 -75 -180 -75h-1024z" />
    <glyph glyph-name="h" unicode="h" horiz-adv-x="2304" 
d="M256 0q-107 0 -181 75q-75 75 -75 181v1536q0 106 75 180q75 76 181 76t180 -76q76 -75 76 -180v-1152q0 -53 37 -91q38 -37 91 -37q52 0 90 37q38 38 38 91v1152q0 106 75 180q75 76 181 76h768q106 0 180 -76q76 -75 76 -180v-1536q0 -107 -76 -181q-75 -75 -180 -75
q-107 0 -181 75q-75 75 -75 181v1152q0 52 -38 90t-90 38q-53 0 -91 -38q-37 -38 -37 -90v-1152q0 -107 -76 -181q-75 -75 -180 -75h-768z" />
    <glyph glyph-name="i" unicode="i" horiz-adv-x="0" 
d="M-1536 2304q-106 0 -180 75q-76 75 -76 181t76 180q75 76 180 76h1024q107 0 181 -76q75 -75 75 -180q0 -107 -75 -181q-75 -75 -181 -75h-1024z" />
    <glyph glyph-name="j" unicode="j" 
d="M256 0q-107 0 -181 75q-75 75 -75 181v1536q0 106 75 180q75 76 181 76h1024q106 0 180 -76q76 -75 76 -180q0 -107 -76 -181q-75 -75 -180 -75h-640q-53 0 -91 -38q-37 -38 -37 -90q0 -53 37 -91q38 -37 91 -37h384q106 0 180 -76q76 -75 76 -180q0 -107 -76 -181
q-75 -75 -180 -75h-384q-53 0 -91 -38q-37 -38 -37 -90q0 -53 37 -91q38 -37 91 -37h640q106 0 180 -76q76 -75 76 -180q0 -107 -76 -181q-75 -75 -180 -75h-1024z" />
    <glyph glyph-name="k" unicode="k" horiz-adv-x="2304" 
d="M256 0q-107 0 -181 75q-75 75 -75 181v1536q0 106 75 180q75 76 181 76h1536q106 0 180 -76q76 -75 76 -180v-1536q0 -107 -76 -181q-75 -75 -180 -75q-107 0 -181 75q-75 75 -75 181v1152q0 52 -38 90t-90 38q-53 0 -91 -38q-37 -38 -37 -90v-1152q0 -107 -76 -181
q-75 -75 -180 -75q-107 0 -181 75q-75 75 -75 181v1152q0 52 -38 90t-90 38q-53 0 -91 -38q-37 -38 -37 -90v-1152q0 -107 -76 -181q-75 -75 -180 -75v0z" />
    <glyph glyph-name="l" unicode="l" horiz-adv-x="2304" 
d="M256 0q-107 0 -181 75q-75 75 -75 181v1536q0 106 75 180q75 76 181 76h768q106 0 180 -76q76 -75 76 -180v-1152q0 -53 37 -91q38 -37 91 -37q52 0 90 37q38 38 38 91v1152q0 106 75 180q75 76 181 76t180 -76q76 -75 76 -180v-1536q0 -107 -76 -181q-75 -75 -180 -75
h-768q-107 0 -181 75q-75 75 -75 181v1152q0 52 -38 90t-90 38q-53 0 -91 -38q-37 -38 -37 -90v-1152q0 -107 -76 -181q-75 -75 -180 -75v0z" />
    <glyph glyph-name="m" unicode="m" horiz-adv-x="2304" 
d="M256 0q-107 0 -181 75q-75 75 -75 181v1536q0 106 75 180q75 76 181 76t180 -76q76 -75 76 -180v-384q0 -53 37 -91q38 -37 91 -37h384q106 0 180 -76q76 -75 76 -180q0 -107 -76 -181q-75 -75 -180 -75h-384q-53 0 -91 -38q-37 -38 -37 -90q0 -53 37 -91q38 -37 91 -37
h768q52 0 90 37q38 38 38 91v1152q0 106 75 180q75 76 181 76t180 -76q76 -75 76 -180v-1536q0 -107 -76 -181q-75 -75 -180 -75h-1536z" />
    <glyph glyph-name="n" unicode="n" 
d="M256 0q-107 0 -181 75q-75 75 -75 181v1536q0 106 75 180q75 76 181 76t180 -76q76 -75 76 -180v-1152q0 -53 37 -91q38 -37 91 -37h640q106 0 180 -76q76 -75 76 -180q0 -107 -76 -181q-75 -75 -180 -75h-1024z" />
    <glyph glyph-name="o" unicode="o" horiz-adv-x="768" 
d="M256 -512q-107 0 -181 76q-75 75 -75 180v1024h-512q-106 0 -180 75q-76 75 -76 181t76 180q75 76 180 76h768q106 0 180 -76q76 -75 76 -180v-896q0 -53 37 -91q38 -37 91 -37h128v-256q0 -106 -76 -180q-75 -76 -180 -76h-256z" />
    <glyph glyph-name="p" unicode="p" 
d="M256 0q-107 0 -181 75q-75 75 -75 181v1536q0 106 75 180q75 76 181 76t180 -76q76 -75 76 -180v-1152q0 -53 37 -91q38 -37 91 -37h256q52 0 90 37q38 38 38 91v1152q0 106 75 180q75 76 181 76t180 -76q76 -75 76 -180v-1536q0 -107 -76 -181q-75 -75 -180 -75h-1024z
" />
    <glyph glyph-name="q" unicode="q" horiz-adv-x="0" 
d="M-512 -512q-106 0 -180 76q-76 75 -76 180v512h512v-128q0 -53 38 -91q38 -37 90 -37h128v-256q0 -106 -75 -180q-75 -76 -181 -76h-256z" />
    <glyph glyph-name="r" unicode="r" 
d="M896 512q52 0 90 37q38 38 38 91q0 52 -38 90t-90 38h-256q-53 0 -91 -38q-37 -38 -37 -90q0 -53 37 -91q38 -37 91 -37h256zM256 0q-107 0 -181 75q-75 75 -75 181v768q0 106 75 180q75 76 181 76h768v512q0 106 75 180q75 76 181 76t180 -76q76 -75 76 -180v-1536
q0 -107 -76 -181q-75 -75 -180 -75h-1024z" />
    <glyph glyph-name="s" unicode="s" horiz-adv-x="1536" 
d="M256 0q-107 0 -181 75q-75 75 -75 181v1536q0 106 75 180q75 76 181 76t180 -76q76 -75 76 -180v-384q0 -53 37 -91q38 -37 91 -37q52 0 90 37q38 38 38 91v384q0 106 75 180q75 76 181 76t180 -76q76 -75 76 -180v-768q0 -107 -76 -181q-75 -75 -180 -75h-512v-128
q0 -53 37 -91q38 -37 91 -37h128v-256q0 -107 -76 -181q-75 -75 -180 -75h-256z" />
    <glyph glyph-name="t" unicode="t" horiz-adv-x="2304" 
d="M640 512q52 0 90 37q38 38 38 91v768q0 52 -38 90t-90 38q-53 0 -91 -38q-37 -38 -37 -90v-768q0 -53 37 -91q38 -37 91 -37v0zM256 0q-107 0 -181 75q-75 75 -75 181v1536q0 106 75 180q75 76 181 76h1536q106 0 180 -76q76 -75 76 -180v-1536q0 -107 -76 -181
q-75 -75 -180 -75q-107 0 -181 75q-75 75 -75 181v1152q0 52 -38 90t-90 38q-53 0 -91 -38q-37 -38 -37 -90v-1152q0 -107 -76 -181q-75 -75 -180 -75h-768z" />
    <glyph glyph-name="u" unicode="u" horiz-adv-x="0" 
d="M-1536 -768q-106 0 -180 76q-76 75 -76 180q0 107 76 181q75 75 180 75h640q53 0 91 38q37 38 37 90v384q0 106 76 180q75 76 180 76q107 0 181 -76q75 -75 75 -180v-768q0 -106 -75 -180q-75 -76 -181 -76h-1024z" />
    <glyph glyph-name="v" unicode="v" 
d="M896 512q52 0 90 37q38 38 38 91v768q0 52 -38 90t-90 38h-256q-53 0 -91 -38q-37 -38 -37 -90v-768q0 -53 37 -91q38 -37 91 -37h256zM256 0q-107 0 -181 75q-75 75 -75 181v1536q0 106 75 180q75 76 181 76h1024q106 0 180 -76q76 -75 76 -180v-1536q0 -107 -76 -181
q-75 -75 -180 -75h-1024z" />
    <glyph glyph-name="w" unicode="w" horiz-adv-x="256" 
 />
    <glyph glyph-name="x" unicode="x" horiz-adv-x="2304" 
d="M256 0q-107 0 -181 75q-75 75 -75 181v1536q0 106 75 180q75 76 181 76h1536q106 0 180 -76q76 -75 76 -180v-1536q0 -107 -76 -181q-75 -75 -180 -75q-107 0 -181 75q-75 75 -75 181v384q0 52 -38 90t-90 38h-384q-107 0 -181 75q-75 75 -75 181t75 180q75 76 181 76
h384q52 0 90 37q38 38 38 91q0 52 -38 90t-90 38h-768q-53 0 -91 -38q-37 -38 -37 -90v-768q0 -53 37 -91q38 -37 91 -37h128v-256q0 -107 -76 -181q-75 -75 -180 -75h-256z" />
    <glyph glyph-name="y" unicode="y" horiz-adv-x="2304" 
d="M256 0q-107 0 -181 75q-75 75 -75 181v1536q0 106 75 180q75 76 181 76t180 -76q76 -75 76 -180v-1152q0 -53 37 -91q38 -37 91 -37q52 0 90 37q38 38 38 91v1152q0 106 75 180q75 76 181 76t180 -76q76 -75 76 -180v-1152q0 -53 37 -91q38 -37 91 -37q52 0 90 37
q38 38 38 91v1152q0 106 75 180q75 76 181 76t180 -76q76 -75 76 -180v-1536q0 -107 -76 -181q-75 -75 -180 -75h-1536z" />
    <glyph glyph-name="z" unicode="z" horiz-adv-x="256" 
 />
    <glyph glyph-name="quoteleft" unicode="&#x2018;" horiz-adv-x="1280" 
d="M1024 0l-1024 1024l1024 1024v-512l-512 -512l512 -512v-512v0z" />
    <glyph glyph-name="quoteright" unicode="&#x2019;" horiz-adv-x="1280" 
d="M0 0v512l512 512l-512 512v512l1024 -1024l-1024 -1024v0z" />
    <glyph glyph-name="quotedblleft" unicode="&#x201c;" horiz-adv-x="1280" 
d="M1024 0l-1024 1024l1024 1024v-512l-512 -512l512 -512v-512v0z" />
    <glyph glyph-name="quotedblright" unicode="&#x201d;" horiz-adv-x="1280" 
d="M0 0v512l512 512l-512 512v512l1024 -1024l-1024 -1024v0z" />
  </font>
</defs>
</svg>
