<?xml version="1.0" standalone="no"?>
<!DOCTYPE svg PUBLIC "-//W3C//DTD SVG 1.1//EN" "http://www.w3.org/Graphics/SVG/1.1/DTD/svg11.dtd" >
<svg xmlns="http://www.w3.org/2000/svg" xmlns:xlink="http://www.w3.org/1999/xlink" version="1.1">
<metadata>
Created by FontForge 20200511 at Sat Sep 11 08:43:26 2021
 By convertio
Copyright csturoe 2015
</metadata>
<defs>
<font id="Lavvinko-Smooth-Serif" horiz-adv-x="768" >
  <font-face 
    font-family="Lavvinko Smooth Serif"
    font-weight="400"
    font-stretch="normal"
    units-per-em="1024"
    panose-1="0 0 4 0 0 0 0 0 0 0"
    ascent="819"
    descent="-205"
    x-height="128"
    cap-height="640"
    bbox="-768 -256 704 960"
    underline-thickness="51"
    underline-position="77"
    unicode-range="U+0020-201D"
  />
<missing-glyph horiz-adv-x="718" 
d="M521 50l-226 314l-226 -314h452zM50 69l226 315l-226 314v-629v0zM540 69v629l-226 -314l226 -315v0zM295 403l226 315h-452l226 -315v0zM0 0v768h590v-768h-590z" />
    <glyph glyph-name=".notdef" horiz-adv-x="718" 
d="M521 50l-226 314l-226 -314h452zM50 69l226 315l-226 314v-629v0zM540 69v629l-226 -314l226 -315v0zM295 403l226 315h-452l226 -315v0zM0 0v768h590v-768h-590z" />
    <glyph glyph-name="space" unicode=" " horiz-adv-x="128" 
 />
    <glyph glyph-name="quotedbl" unicode="&#x22;" horiz-adv-x="512" 
d="M256 0l-256 256v128l256 256h128l-256 -256v-128l256 -256h-128z" />
    <glyph glyph-name="quotesingle" unicode="'" horiz-adv-x="512" 
d="M0 0l256 256v128l-256 256h128l256 -256v-128l-256 -256h-128z" />
    <glyph glyph-name="parenleft" unicode="(" horiz-adv-x="512" 
d="M128 0q-54 0 -91 37q-37 38 -37 91v384q0 53 37 90q38 38 91 38h192l64 64v-192h-192q-27 0 -46 -19q-18 -19 -18 -45v-256q0 -27 18 -46q19 -18 46 -18h192q0 -54 -38 -91t-90 -37h-128z" />
    <glyph glyph-name="parenright" unicode=")" horiz-adv-x="512" 
d="M0 0v128h192q26 0 45 18q19 19 19 46v256q0 26 -19 45t-45 19h-192q0 53 37 90q38 38 91 38h128q53 0 90 -38q38 -38 38 -90v-384q0 -54 -38 -91t-90 -37h-256z" />
    <glyph glyph-name="comma" unicode="," horiz-adv-x="512" 
d="M64 128q-27 0 -46 18q-18 19 -18 46q0 26 18 45q19 19 46 19q26 0 45 -19t19 -45q0 -27 -19 -46q-19 -18 -45 -18v0zM320 256q-27 0 -46 18q-18 19 -18 46q0 26 18 45q19 19 46 19q26 0 45 -19t19 -45q0 -27 -19 -46q-19 -18 -45 -18v0zM64 384q-27 0 -46 18
q-18 19 -18 46q0 26 18 45q19 19 46 19q26 0 45 -19t19 -45q0 -27 -19 -46q-19 -18 -45 -18v0z" />
    <glyph glyph-name="period" unicode="." 
d="M0 256q0 53 37 90q38 38 91 38h512q0 -54 -38 -91t-90 -37h-512z" />
    <glyph glyph-name="zero" unicode="0" horiz-adv-x="512" 
d="M192 256q26 0 45 18q19 19 19 46q0 26 -19 45t-45 19q-27 0 -46 -19q-18 -19 -18 -45q0 -27 18 -46q19 -18 46 -18v0zM128 128q-54 0 -91 37q-37 38 -37 91v128q0 53 37 90q38 38 91 38h128q53 0 90 -38q38 -38 38 -90v-128q0 -54 -38 -91t-90 -37h-128z" />
    <glyph glyph-name="one" unicode="1" horiz-adv-x="256" 
d="M0 0v576l-64 64h192v-576l64 -64h-192z" />
    <glyph glyph-name="two" unicode="2" horiz-adv-x="512" 
d="M0 0v256q0 53 37 90q38 38 91 38h64q26 0 45 18q19 19 19 46q0 26 -19 45t-45 19h-192q0 53 37 90q38 38 91 38h128q53 0 90 -38q38 -38 38 -90v-128q0 -54 -38 -91t-90 -37h-64q-27 0 -46 -19q-18 -19 -18 -45v-128l64 -64h-192z" />
    <glyph glyph-name="three" unicode="3" horiz-adv-x="512" 
d="M128 -256q-54 0 -91 38t-37 90v128q0 53 37 90q38 38 91 38h64q26 0 45 18q19 19 19 46q0 26 -19 45t-45 19h-192q0 53 37 90q38 38 91 38h64q26 0 45 18q19 19 19 46q0 26 -19 45t-45 19h-192q0 53 37 90q38 38 91 38h128q53 0 90 -38q38 -38 38 -90v-384q0 -54 -38 -91
t-90 -37h-64q-27 0 -46 -18q-18 -19 -18 -46q0 -26 18 -45q19 -19 46 -19h64q0 -53 -38 -90q-38 -38 -90 -38v0z" />
    <glyph glyph-name="four" unicode="4" 
d="M192 128q26 0 45 18q19 19 19 46v64h-64q-27 0 -46 -19q-18 -19 -18 -45q0 -27 18 -46q19 -18 46 -18v0zM128 0q-54 0 -91 37q-37 38 -37 91v128q0 53 37 90q38 38 91 38h128v192l-64 64h192v-256h192l64 64v-192h-256v-128q0 -54 -38 -91t-90 -37h-128z" />
    <glyph glyph-name="five" unicode="5" horiz-adv-x="512" 
d="M256 0v256h-128q-54 0 -91 37q-37 38 -37 91v192l-64 64h192v-192q0 -27 18 -46q19 -18 46 -18q26 0 45 18q19 19 19 46v192q53 0 90 -38q38 -38 38 -90v-448l64 -64h-192z" />
    <glyph glyph-name="six" unicode="6" horiz-adv-x="512" 
d="M128 0q-54 0 -91 37q-37 38 -37 91v384q0 53 37 90q38 38 91 38h192l64 64v-192h-192q-27 0 -46 -19q-18 -19 -18 -45q0 -27 18 -46q19 -18 46 -18h192q0 -54 -38 -91t-90 -37h-64q-27 0 -46 -19q-18 -19 -18 -45q0 -27 18 -46q19 -18 46 -18h192q0 -54 -38 -91t-90 -37
h-128z" />
    <glyph glyph-name="seven" unicode="7" horiz-adv-x="512" 
d="M256 0v448q0 26 -19 45t-45 19h-192q0 53 37 90q38 38 91 38h128q53 0 90 -38q38 -38 38 -90v-448l64 -64h-192z" />
    <glyph glyph-name="eight" unicode="8" horiz-adv-x="512" 
d="M256 0v192q0 26 -19 45t-45 19h-64q-54 0 -91 37q-37 38 -37 91v192q0 26 -18 45q-19 19 -46 19h192v-192q0 -27 18 -46q19 -18 46 -18h64q53 0 90 -38q38 -38 38 -90v-192l64 -64h-192z" />
    <glyph glyph-name="nine" unicode="9" horiz-adv-x="512" 
d="M192 384q26 0 45 18q19 19 19 46q0 26 -19 45t-45 19q-27 0 -46 -19q-18 -19 -18 -45v-64h64zM0 0v512q0 53 37 90q38 38 91 38h128q53 0 90 -38q38 -38 38 -90v-128q0 -54 -38 -91t-90 -37h-128v-192l64 -64h-192z" />
    <glyph glyph-name="A" unicode="A" 
d="M0 0v128h192q26 0 45 18q19 19 19 46v64h-128q-54 0 -91 37q-37 38 -37 91v192l-64 64h192v-192q0 -27 18 -46q19 -18 46 -18h256q26 0 45 18q19 19 19 46v192q53 0 90 -38q38 -38 38 -90v-448l64 -64h-192v256h-128v-128q0 -54 -38 -91t-90 -37h-256z" />
    <glyph glyph-name="B" unicode="B" 
 />
    <glyph glyph-name="C" unicode="C" horiz-adv-x="128" 
 />
    <glyph glyph-name="D" unicode="D" horiz-adv-x="128" 
 />
    <glyph glyph-name="E" unicode="E" 
d="M128 0q-54 0 -91 37q-37 38 -37 91v384q0 53 37 90q38 38 91 38h384q53 0 90 -38q38 -38 38 -90v-384q0 -54 -38 -91t-90 -37h-128q-54 0 -91 37q-37 38 -37 91v256q53 0 90 -38q38 -38 38 -90v-64q0 -27 18 -46q19 -18 46 -18q26 0 45 18q19 19 19 46v256q0 26 -19 45
t-45 19h-256q-27 0 -46 -19q-18 -19 -18 -45v-448v0z" />
    <glyph glyph-name="F" unicode="F" horiz-adv-x="128" 
 />
    <glyph glyph-name="G" unicode="G" horiz-adv-x="896" 
d="M128 0q-54 0 -91 37q-37 38 -37 91v384q0 53 37 90q38 38 91 38h384q53 0 90 -38q38 -38 38 -90v-448l64 -64h-192v448q0 26 -19 45t-45 19h-256q-27 0 -46 -19q-18 -19 -18 -45v-448v0z" />
    <glyph glyph-name="H" unicode="H" horiz-adv-x="256" 
d="M64 128q-27 0 -46 18q-18 19 -18 46q0 26 18 45q19 19 46 19q26 0 45 -19t19 -45q0 -27 -19 -46q-19 -18 -45 -18v0zM64 384q-27 0 -46 18q-18 19 -18 46q0 26 18 45q19 19 46 19q26 0 45 -19t19 -45q0 -27 -19 -46q-19 -18 -45 -18v0z" />
    <glyph glyph-name="I" unicode="I" 
d="M0 0v320l-64 64h192v-320l64 -64h-192zM256 0v320l-64 64h192v-320l64 -64h-192zM512 0v448q0 26 -19 45t-45 19h-448q0 53 37 90q38 38 91 38h384q53 0 90 -38q38 -38 38 -90v-448l64 -64h-192z" />
    <glyph glyph-name="J" unicode="J" horiz-adv-x="128" 
 />
    <glyph glyph-name="K" unicode="K" horiz-adv-x="384" 
d="M0 128v320l-64 64h192v-320l64 -64h-192z" />
    <glyph glyph-name="L" unicode="L" horiz-adv-x="128" 
 />
    <glyph glyph-name="M" unicode="M" horiz-adv-x="256" 
d="M64 256q-27 0 -46 18q-18 19 -18 46q0 26 18 45q19 19 46 19q26 0 45 -19t19 -45q0 -27 -19 -46q-19 -18 -45 -18v0z" />
    <glyph glyph-name="N" unicode="N" 
d="M0 0v128h448q26 0 45 18q19 19 19 46v256q0 26 -19 45t-45 19h-448q0 53 37 90q38 38 91 38h384q53 0 90 -38q38 -38 38 -90v-384q0 -54 -38 -91t-90 -37h-512z" />
    <glyph glyph-name="O" unicode="O" 
d="M128 0q-54 0 -91 37q-37 38 -37 91v128q0 53 37 90q38 38 91 38h320q26 0 45 18q19 19 19 46q0 26 -19 45t-45 19h-448q0 53 37 90q38 38 91 38h384q53 0 90 -38q38 -38 38 -90v-128q0 -54 -38 -91t-90 -37h-320q-27 0 -46 -19q-18 -19 -18 -45q0 -27 18 -46
q19 -18 46 -18h448q0 -54 -38 -91t-90 -37h-384z" />
    <glyph glyph-name="P" unicode="P" horiz-adv-x="128" 
 />
    <glyph glyph-name="Q" unicode="Q" 
d="M0 0v128h448q26 0 45 18q19 19 19 46v64h-384q-54 0 -91 37q-37 38 -37 91v192q0 26 -18 45q-19 19 -46 19h192v-192q0 -27 18 -46q19 -18 46 -18h256q26 0 45 18q19 19 19 46v192q53 0 90 -38q38 -38 38 -90v-384q0 -54 -38 -91t-90 -37h-512z" />
    <glyph glyph-name="R" unicode="R" horiz-adv-x="128" 
 />
    <glyph glyph-name="S" unicode="S" horiz-adv-x="512" 
d="M0 128v320l-64 64h192v-128h64q26 0 45 18q19 19 19 46l-64 64h192v-128q0 -54 -38 -91t-90 -37h-128v-64l64 -64h-192z" />
    <glyph glyph-name="T" unicode="T" horiz-adv-x="128" 
 />
    <glyph glyph-name="U" unicode="U" 
d="M128 0q-54 0 -91 37q-37 38 -37 91v128q0 53 37 90q38 38 91 38h64q26 0 45 18q19 19 19 46v128l-64 64h192v-256q0 -54 -38 -91t-90 -37h-64q-27 0 -46 -19q-18 -19 -18 -45q0 -27 18 -46q19 -18 46 -18h448q0 -54 -38 -91t-90 -37h-384z" />
    <glyph glyph-name="V" unicode="V" 
 />
    <glyph glyph-name="W" unicode="W" 
d="M128 0q-54 0 -91 37q-37 38 -37 91v128q0 53 37 90q38 38 91 38h64q26 0 45 18q19 19 19 46q0 26 -19 45t-45 19h-192q0 53 37 90q38 38 91 38h128q53 0 90 -38q38 -38 38 -90v-128h64q26 0 45 18q19 19 19 46v192q53 0 90 -38q38 -38 38 -90v-128q0 -54 -38 -91t-90 -37
h-320q-27 0 -46 -19q-18 -19 -18 -45q0 -27 18 -46q19 -18 46 -18h448q0 -54 -38 -91t-90 -37h-384z" />
    <glyph glyph-name="X" unicode="X" horiz-adv-x="0" 
d="M-768 768q0 53 38 90q38 38 90 38h448l64 64v-192h-640z" />
    <glyph glyph-name="Y" unicode="Y" 
d="M128 0q-54 0 -91 37q-37 38 -37 91v128q0 53 37 90q38 38 91 38h64q26 0 45 18q19 19 19 46q0 26 -19 45t-45 19h-192q0 53 37 90q38 38 91 38h128q53 0 90 -38q38 -38 38 -90v-128q0 -54 -38 -91t-90 -37h-64q-27 0 -46 -19q-18 -19 -18 -45q0 -27 18 -46q19 -18 46 -18
h256q26 0 45 18q19 19 19 46v448q53 0 90 -38q38 -38 38 -90v-384q0 -54 -38 -91t-90 -37h-384z" />
    <glyph glyph-name="Z" unicode="Z" horiz-adv-x="0" 
d="M-640 -256q-53 0 -90 38q-38 38 -38 90h448q27 0 46 19q18 19 18 45v192h128v-256q0 -53 -37 -90q-38 -38 -91 -38h-384z" />
    <glyph glyph-name="a" unicode="a" horiz-adv-x="256" 
d="M0 0v320q0 26 -18 45q-19 19 -46 19h-64q-53 0 -90 37q-38 38 -38 91h256q53 0 90 -38q38 -38 38 -90v-320l64 -64h-192z" />
    <glyph glyph-name="b" unicode="b" 
d="M128 0q-54 0 -91 37q-37 38 -37 91v384q0 53 37 90q38 38 91 38h448l64 64v-192h-448q-27 0 -46 -19q-18 -19 -18 -45v-64h384q53 0 90 -38q38 -38 38 -90v-256q-54 0 -91 37q-37 38 -37 91v64q0 26 -19 45t-45 19h-256q-27 0 -46 -19q-18 -19 -18 -45v-192v0z" />
    <glyph glyph-name="c" unicode="c" 
d="M0 0v128h448q26 0 45 18q19 19 19 46v448q53 0 90 -38q38 -38 38 -90v-384q0 -54 -38 -91t-90 -37h-512z" />
    <glyph glyph-name="d" unicode="d" 
d="M448 128q26 0 45 18q19 19 19 46q0 26 -19 45t-45 19h-256q-27 0 -46 -19q-18 -19 -18 -45q0 -27 18 -46q19 -18 46 -18h256zM128 0q-54 0 -91 37q-37 38 -37 91v448l-64 64h192v-256h384q53 0 90 -38q38 -38 38 -90v-128q0 -54 -38 -91t-90 -37h-384z" />
    <glyph glyph-name="e" unicode="e" horiz-adv-x="256" 
d="M128 0q-54 0 -91 37q-37 38 -37 91v256q0 53 37 90q38 38 91 38h256q0 -54 -38 -91t-90 -37h-64q-27 0 -46 -19q-18 -19 -18 -45v-128q0 -27 18 -46q19 -18 46 -18h192v-128h-256z" />
    <glyph glyph-name="f" unicode="f" 
 />
    <glyph glyph-name="g" unicode="g" 
d="M128 0q-54 0 -91 37q-37 38 -37 91v384q0 53 37 90q38 38 91 38h448l64 64v-192h-448q-27 0 -46 -19q-18 -19 -18 -45v-256q0 -27 18 -46q19 -18 46 -18h448q0 -54 -38 -91t-90 -37h-384z" />
    <glyph glyph-name="h" unicode="h" 
d="M128 0q-54 0 -91 37q-37 38 -37 91v448l-64 64h192v-448q0 -27 18 -46q19 -18 46 -18q26 0 45 18q19 19 19 46v320q0 53 37 90q38 38 91 38h128q53 0 90 -38q38 -38 38 -90v-512q-54 0 -91 37q-37 38 -37 91v320q0 26 -19 45t-45 19q-27 0 -46 -19q-18 -19 -18 -45v-320
q0 -54 -38 -91t-90 -37h-128z" />
    <glyph glyph-name="i" unicode="i" horiz-adv-x="0" 
d="M-768 768q0 53 38 90q38 38 90 38h448l64 64v-192h-640z" />
    <glyph glyph-name="j" unicode="j" 
d="M128 0q-54 0 -91 37q-37 38 -37 91v128q0 26 18 45q19 19 46 19q-27 0 -46 18q-18 19 -18 46v128q0 53 37 90q38 38 91 38h448l64 64v-192h-448q-27 0 -46 -19q-18 -19 -18 -45q0 -27 18 -46q19 -18 46 -18h320q0 -54 -38 -91t-90 -37h-192q-27 0 -46 -19
q-18 -19 -18 -45q0 -27 18 -46q19 -18 46 -18h448q0 -54 -38 -91t-90 -37h-384z" />
    <glyph glyph-name="k" unicode="k" 
d="M128 0q-54 0 -91 37q-37 38 -37 91v384q0 53 37 90q38 38 91 38h128q26 0 45 -19t19 -45q0 26 18 45q19 19 46 19h128q53 0 90 -38q38 -38 38 -90v-512q-54 0 -91 37q-37 38 -37 91v320q0 26 -19 45t-45 19q-27 0 -46 -19q-18 -19 -18 -45v-320q-54 0 -91 37
q-37 38 -37 91v192q0 26 -19 45t-45 19q-27 0 -46 -19q-18 -19 -18 -45v-448v0z" />
    <glyph glyph-name="l" unicode="l" 
d="M128 0q-54 0 -91 37q-37 38 -37 91v384q0 53 37 90q38 38 91 38h128q53 0 90 -38q38 -38 38 -90v-320q0 -27 18 -46q19 -18 46 -18q26 0 45 18q19 19 19 46v448q53 0 90 -38q38 -38 38 -90v-384q0 -54 -38 -91t-90 -37h-128q-54 0 -91 37q-37 38 -37 91v320q0 26 -19 45
t-45 19q-27 0 -46 -19q-18 -19 -18 -45v-448v0z" />
    <glyph glyph-name="m" unicode="m" 
d="M512 128v128h-320q-27 0 -46 -19q-18 -19 -18 -45q0 -27 18 -46q19 -18 46 -18h320zM128 0q-54 0 -91 37q-37 38 -37 91v128q0 26 18 45q19 19 46 19q-27 0 -46 18q-18 19 -18 46v192l-64 64h192v-192q0 -27 18 -46q19 -18 46 -18h320v256q53 0 90 -38q38 -38 38 -90
v-384q0 -54 -38 -91t-90 -37h-384z" />
    <glyph glyph-name="n" unicode="n" 
d="M128 0q-54 0 -91 37q-37 38 -37 91v448l-64 64h192v-448q0 -27 18 -46q19 -18 46 -18h448q0 -54 -38 -91t-90 -37h-384z" />
    <glyph glyph-name="o" unicode="o" horiz-adv-x="256" 
d="M0 0v320q0 26 -18 45q-19 19 -46 19h-64q-53 0 -90 37q-38 38 -38 91h256q53 0 90 -38q38 -38 38 -90v-320l64 -64h-192z" />
    <glyph glyph-name="p" unicode="p" 
d="M128 0q-54 0 -91 37q-37 38 -37 91v448l-64 64h192v-448q0 -27 18 -46q19 -18 46 -18h256q26 0 45 18q19 19 19 46v448q53 0 90 -38q38 -38 38 -90v-384q0 -54 -38 -91t-90 -37h-384z" />
    <glyph glyph-name="q" unicode="q" horiz-adv-x="0" 
d="M-256 0v128h128v-64l64 -64h-192z" />
    <glyph glyph-name="r" unicode="r" 
d="M448 128q26 0 45 18q19 19 19 46q0 26 -19 45t-45 19h-256q-27 0 -46 -19q-18 -19 -18 -45q0 -27 18 -46q19 -18 46 -18h256zM128 0q-54 0 -91 37q-37 38 -37 91v128q0 53 37 90q38 38 91 38h384v256q53 0 90 -38q38 -38 38 -90v-384q0 -54 -38 -91t-90 -37h-384z" />
    <glyph glyph-name="s" unicode="s" 
d="M128 0q-54 0 -91 37q-37 38 -37 91v448l-64 64h192v-192q0 -27 18 -46q19 -18 46 -18h256q26 0 45 18q19 19 19 46v192q53 0 90 -38q38 -38 38 -90v-128q0 -54 -38 -91t-90 -37h-384v-256v0z" />
    <glyph glyph-name="t" unicode="t" 
d="M192 128q26 0 45 18q19 19 19 46v320h-64q-27 0 -46 -19q-18 -19 -18 -45v-256q0 -27 18 -46q19 -18 46 -18v0zM128 0q-54 0 -91 37q-37 38 -37 91v384q0 53 37 90q38 38 91 38h384q53 0 90 -38q38 -38 38 -90v-512q-54 0 -91 37q-37 38 -37 91v320q0 26 -19 45t-45 19
h-64v-384q0 -54 -38 -91t-90 -37h-128z" />
    <glyph glyph-name="u" unicode="u" horiz-adv-x="0" 
d="M-640 -256q-53 0 -90 38q-38 38 -38 90h448q27 0 46 19q18 19 18 45v192h128v-256q0 -53 -37 -90q-38 -38 -91 -38h-384z" />
    <glyph glyph-name="v" unicode="v" 
d="M448 128q26 0 45 18q19 19 19 46v256q0 26 -19 45t-45 19h-256q-27 0 -46 -19q-18 -19 -18 -45v-256q0 -27 18 -46q19 -18 46 -18h256zM128 0q-54 0 -91 37q-37 38 -37 91v384q0 53 37 90q38 38 91 38h384q53 0 90 -38q38 -38 38 -90v-384q0 -54 -38 -91t-90 -37h-384z
" />
    <glyph glyph-name="w" unicode="w" horiz-adv-x="128" 
 />
    <glyph glyph-name="x" unicode="x" 
d="M448 384q26 0 45 18q19 19 19 46v64h-384v-128h320zM128 0q-54 0 -91 37q-37 38 -37 91v384q0 53 37 90q38 38 91 38h384q53 0 90 -38q38 -38 38 -90v-128q0 -27 -19 -46q-19 -18 -45 -18q26 0 45 -19t19 -45v-256q-54 0 -91 37q-37 38 -37 91v64q0 26 -19 45t-45 19
h-320v-256v0z" />
    <glyph glyph-name="y" unicode="y" 
d="M128 0q-54 0 -91 37q-37 38 -37 91v448l-64 64h192v-448q0 -27 18 -46q19 -18 46 -18q26 0 45 18q19 19 19 46v320q53 0 90 -38q38 -38 38 -90v-192q0 -27 18 -46q19 -18 46 -18q26 0 45 18q19 19 19 46v448q53 0 90 -38q38 -38 38 -90v-384q0 -54 -38 -91t-90 -37h-128
q-27 0 -46 18q-19 19 -19 46q0 -27 -18 -46q-19 -18 -45 -18h-128z" />
    <glyph glyph-name="z" unicode="z" 
 />
    <glyph glyph-name="quoteleft" unicode="&#x2018;" horiz-adv-x="512" 
d="M256 0l-256 256v128l256 256h128l-256 -256v-128l256 -256h-128z" />
    <glyph glyph-name="quoteright" unicode="&#x2019;" horiz-adv-x="512" 
d="M0 0l256 256v128l-256 256h128l256 -256v-128l-256 -256h-128z" />
    <glyph glyph-name="quotedblleft" unicode="&#x201c;" horiz-adv-x="512" 
d="M256 0l-256 256v128l256 256h128l-256 -256v-128l256 -256h-128z" />
    <glyph glyph-name="quotedblright" unicode="&#x201d;" horiz-adv-x="512" 
d="M0 0l256 256v128l-256 256h128l256 -256v-128l-256 -256h-128z" />
  </font>
</defs>
</svg>
